<svg width="13" height="13" viewBox="0 0 13 13" fill="none" xmlns="http://www.w3.org/2000/svg">
<path d="M6.40845 4.19748H1.83099C1.32537 4.19748 0.915493 4.60736 0.915493 5.11297V11.169C0.915493 11.6746 1.32537 12.0845 1.83099 12.0845H7.887C8.39261 12.0845 8.8025 11.6746 8.8025 11.169V6.59148C8.8025 6.33868 9.00743 6.13374 9.26024 6.13374C9.51305 6.13374 9.71799 6.33868 9.71799 6.59148V11.169C9.71799 12.1802 8.89823 13 7.887 13H1.83099C0.819762 13 0 12.1802 0 11.169V5.11297C0 4.10174 0.819761 3.28198 1.83099 3.28198H6.40845C6.66126 3.28198 6.8662 3.48692 6.8662 3.73973C6.8662 3.99254 6.66126 4.19748 6.40845 4.19748Z" fill="#284B63"/>
<rect x="9.28516" y="2.92957" width="0.915493" height="7.32395" rx="0.25" transform="rotate(40 9.28516 2.92957)" fill="#284B63"/>
<path d="M10.6075 1.81108C10.7578 1.78698 10.8946 1.90177 10.897 2.05403L10.9406 4.85103C10.944 5.06519 10.694 5.18412 10.53 5.04644L7.72424 2.69218C7.56016 2.55451 7.63388 2.28773 7.84537 2.25383L10.6075 1.81108Z" fill="#284B63"/>
</svg>
